<?xml version="1.0" encoding="UTF-8"?>
<svg xmlns="http://www.w3.org/2000/svg" xmlns:xlink="http://www.w3.org/1999/xlink" width="58.248" height="27.919" viewBox="0 0 58.248 27.919">
  <defs>
    <linearGradient id="linear-gradient" y1="0.5" x2="1" y2="0.5" gradientUnits="objectBoundingBox">
      <stop offset="0" stop-color="#fff"></stop>
      <stop offset="1" stop-color="#fff" stop-opacity="0.302"></stop>
    </linearGradient>
  </defs>
  <g id="pNp_Rev_RGB" transform="translate(0.018 -0.03)">
    <path id="Path_32" data-name="Path 32" d="M70.268,105.482q-.148-1.688-.227-4.6t-.052-7.11c0-.894,0-1.867.04-2.929s.068-2.095.132-3.1.148-1.843.251-2.506a1.261,1.261,0,0,1,.287-.614,2.258,2.258,0,0,1,.9-.459,21.617,21.617,0,0,1,2.522-.626,18.662,18.662,0,0,1,3.507-.307A7.434,7.434,0,0,1,83.352,85.4q2.015,2.167,2,6.835A15.761,15.761,0,0,1,85,95.663a9.217,9.217,0,0,1-1.033,2.717,6.943,6.943,0,0,1-1.648,1.935,5.586,5.586,0,0,1-2.258,1.073,8.507,8.507,0,0,1-1.6.343,14.858,14.858,0,0,1-1.82.116,9.129,9.129,0,0,1-1.552-.116,2.573,2.573,0,0,0-.519-.076c-.112,0-.172.088-.172.267v2.087c0,.427.04.774.04,1.053a3.943,3.943,0,0,1,0,.614c0,.128-.188.192-.519.192h-3.08a.8.8,0,0,1-.4-.076A.4.4,0,0,1,70.268,105.482Zm4.062-8.311a.527.527,0,0,0,.116.4,1.153,1.153,0,0,0,.307.172,9.757,9.757,0,0,0,1.357.307,8.92,8.92,0,0,0,1.325.112,3.559,3.559,0,0,0,1.2-.227,3.045,3.045,0,0,0,1.2-.842,4.569,4.569,0,0,0,.9-1.784,11.312,11.312,0,0,0,.347-3.12q0-3.256-.978-4.465a3.128,3.128,0,0,0-2.55-1.2,9.25,9.25,0,0,0-1.472.116,6.923,6.923,0,0,0-1.245.307.95.95,0,0,0-.211.192.455.455,0,0,0-.1.3q-.076.886-.1,1.915c0,.69-.024,1.4-.04,2.127s-.024,1.448-.036,2.167-.02,1.377-.02,2Z" transform="translate(-70 -77.932)" fill="#fff"></path>
    <path id="Path_33" data-name="Path 33" d="M177.754,105.482q-.156-1.688-.231-4.6t-.04-7.126c0-.894,0-1.867.04-2.929s.072-2.095.136-3.1.144-1.843.247-2.506a1.261,1.261,0,0,1,.287-.614,2.25,2.25,0,0,1,.9-.459,21.306,21.306,0,0,1,2.506-.61,18.662,18.662,0,0,1,3.507-.307,7.426,7.426,0,0,1,5.726,2.167q2.011,2.167,2,6.835a16.018,16.018,0,0,1-.343,3.432,9.221,9.221,0,0,1-1.037,2.717,7,7,0,0,1-1.644,1.935,5.614,5.614,0,0,1-2.262,1.073,8.44,8.44,0,0,1-1.6.343,14.856,14.856,0,0,1-1.82.116,9.177,9.177,0,0,1-1.552-.116,2.545,2.545,0,0,0-.515-.076c-.116,0-.176.088-.176.267v2.087c0,.427.04.774.04,1.053a3.945,3.945,0,0,1,.02.614c0,.128-.188.192-.519.192h-3.1a.822.822,0,0,1-.4-.076A.4.4,0,0,1,177.754,105.482Zm4.058-8.311a.527.527,0,0,0,.116.4,1.153,1.153,0,0,0,.307.172,9.69,9.69,0,0,0,1.361.307,8.83,8.83,0,0,0,1.321.112,3.543,3.543,0,0,0,1.2-.227,3.044,3.044,0,0,0,1.2-.842,4.568,4.568,0,0,0,.9-1.784,11.311,11.311,0,0,0,.347-3.12q0-3.256-.978-4.465a3.124,3.124,0,0,0-2.546-1.2,9.265,9.265,0,0,0-1.476.116,7.1,7.1,0,0,0-1.245.307.95.95,0,0,0-.211.192.455.455,0,0,0-.1.3q-.08.886-.1,1.915c0,.69-.024,1.4-.036,2.127s-.028,1.448-.04,2.167-.02,1.377-.02,2Z" transform="translate(-134.6 -77.932)" fill="#fff"></path>
    <path id="N" d="M120.955,97.949c.223,0,.319-.18.291-.539A21.915,21.915,0,0,1,121,95.148c-.056-.846-.112-1.756-.168-2.741s-.092-2.047-.1-3.192-.02-2.394-.02-3.695V81.306c0-.14.056-.207.164-.207s.148.076.207.168,10.482,15.6,10.749,16.02.471.662.666.662h2.821a1.488,1.488,0,0,0,.519-.084.451.451,0,0,0,.271-.4q.16-1.413.311-3.507t.247-4.6q.1-2.514.144-5.147t0-5.187q-.06-2.554-.247-4.732a36.934,36.934,0,0,0-.479-3.715.575.575,0,0,0-.267-.4.894.894,0,0,0-.479-.144h-4.461c-.219,0-.319.2-.291.583.14,1.105.255,2.219.355,3.34s.164,2.246.208,3.384.068,2.234.08,3.3.028,2.079.044,3.048,0,2.578-.02,2.737-.08.251-.207.251a.347.347,0,0,1-.335-.168c-.1-.144-10.666-15.853-10.829-16.1s-.291-.375-.539-.375h-2.7a.826.826,0,0,0-.435.144.758.758,0,0,0-.311.4,33.593,33.593,0,0,0-.455,3.675q-.168,2.179-.227,4.728t-.044,5.211q.024,2.657.1,5.187t.227,4.585q.124,2.095.291,3.507a.483.483,0,0,0,.311.4,1.5,1.5,0,0,0,.519.084Z" transform="translate(-97.152 -70)" fill="url(#linear-gradient)"></path>
  </g>
</svg>
